toy_with_forces_states
version=1
nRows=31
nColumns=17
inDegrees=yes

# SIMM Motion File Header:
name toy_with_forces_states
datacolumns 17
datarows 31
otherdata 1
range 3.94786755 4.09997505
endheader
time	/jointset/ground_block/xRotation/value	/jointset/ground_block/xRotation/speed	/jointset/ground_block/yRotation/value	/jointset/ground_block/yRotation/speed	/jointset/ground_block/zRotation/value	/jointset/ground_block/zRotation/speed	/jointset/ground_block/xTranslation/value	/jointset/ground_block/xTranslation/speed	/jointset/ground_block/yTranslation/value	/jointset/ground_block/yTranslation/speed	/jointset/ground_block/zTranslation/value	/jointset/ground_block/zTranslation/speed	/jointset/pin1/pin1_rot/value	/jointset/pin1/pin1_rot/speed	/jointset/pin2/pin2_rot/value	/jointset/pin2/pin2_rot/speed
      3.94786755	     -0.00000000	      0.00000000	     -0.00000000	      0.00000000	     48.45393484	    -48.41891896	      0.00000000	      0.00000000	      0.65348781	     -0.33447036	     -0.00000000	     -0.00000000	      4.33739889	     72.39813801	   -105.58266746	    -47.95843810
      3.95264653	     -0.00000000	      0.00000000	     -0.00000000	      0.00000000	     48.22364844	    -47.95130316	      0.00000000	      0.00000000	      0.65196372	     -0.30327286	     -0.00000000	     -0.00000000	      4.67687943	     69.66372926	   -105.80105573	    -43.42485220
      3.95742550	     -0.00000000	      0.00000000	     -0.00000000	      0.00000000	     47.99566261	    -47.45633161	      0.00000000	      0.00000000	      0.65058994	     -0.27157250	     -0.00000000	     -0.00000000	      5.00316351	     66.87636433	   -105.99765223	    -38.84006543
      3.96220447	     -0.00000000	      0.00000000	     -0.00000000	      0.00000000	     47.77010514	    -46.93524379	      0.00000000	      0.00000000	      0.64936874	     -0.23943327	     -0.00000000	     -0.00000000	      5.31600631	     64.03944425	   -106.17222290	    -34.20840092
      3.96698344	     -0.00000000	      0.00000000	     -0.00000000	      0.00000000	     47.54709783	    -46.38929671	      0.00000000	      0.00000000	      0.64830204	     -0.20692104	     -0.00000000	     -0.00000000	      5.61518221	     61.15799447	   -106.32456008	    -29.53739552
      3.97176241	     -0.00000000	      0.00000000	     -0.00000000	      0.00000000	     47.32675647	    -45.81976123	      0.00000000	      0.00000000	      0.64739148	     -0.17410293	     -0.00000000	     -0.00000000	      5.90049314	     58.23803752	   -106.45449921	    -24.83655258
      3.97796070	     -0.00000000	      0.00000000	     -0.00000000	      0.00000000	     47.04512550	    -45.04804201	      0.00000000	      0.00000000	      0.64644516	     -0.13119001	     -0.00000000	     -0.00000000	      6.24960845	     54.40020414	   -106.58946791	    -18.70432425
      3.98415898	     -0.00000000	      0.00000000	     -0.00000000	      0.00000000	     46.76838687	    -44.24162626	      0.00000000	      0.00000000	      0.64576570	     -0.08801943	     -0.00000000	     -0.00000000	      6.57478435	     50.51659891	   -106.68634245	    -12.54994531
      3.99035727	     -0.00000000	      0.00000000	     -0.00000000	      0.00000000	     46.49674683	    -43.40335681	      0.00000000	      0.00000000	      0.64535424	     -0.04473686	     -0.00000000	     -0.00000000	      6.87577661	     46.59885199	   -106.74504688	     -6.39099036
      3.99749244	     -0.00000000	      0.00000000	     -0.00000000	      0.00000000	     46.19060479	    -42.40265656	      0.00000000	      0.00000000	      0.64521272	      0.00504147	     -0.00000000	     -0.00000000	      7.19208247	     42.05773793	   -106.76537454	      0.68983727
      4.01213075	     -0.00000000	      0.00000000	     -0.00000000	      0.00000000	     45.58552155	    -40.24782305	      0.00000000	      0.00000000	      0.64602875	      0.10612090	     -0.00000000	     -0.00000000	      7.73930978	     32.70250177	   -106.64966266	     15.09064256
      4.01672921	     -0.00000000	      0.00000000	     -0.00000000	      0.00000000	     45.40205025	    -39.54730140	      0.00000000	      0.00000000	      0.64658865	      0.13734209	     -0.00000000	     -0.00000000	      7.88298130	     29.78557997	   -106.57006310	     19.52344286
      4.02277411	     -0.00000000	      0.00000000	     -0.00000000	      0.00000000	     45.16580861	    -38.61247617	      0.00000000	      0.00000000	      0.64754168	      0.17786519	     -0.00000000	     -0.00000000	      8.05144215	     25.95198221	   -106.43450152	     25.32098792
      4.02740690	     -0.00000000	      0.00000000	     -0.00000000	      0.00000000	     44.98860337	    -37.88679196	      0.00000000	      0.00000000	      0.64843670	      0.20844408	     -0.00000000	     -0.00000000	      8.16489192	     23.02930422	   -106.30699058	     29.71497548
      4.03203969	     -0.00000000	      0.00000000	     -0.00000000	      0.00000000	     44.81477614	    -37.15436384	      0.00000000	      0.00000000	      0.64947228	      0.23853678	     -0.00000000	     -0.00000000	      8.26487517	     20.13819695	   -106.15930262	     34.03233378
      4.03705306	     -0.00000000	      0.00000000	     -0.00000000	      0.00000000	     44.63050749	    -36.35548744	      0.00000000	      0.00000000	      0.65074855	      0.27050537	     -0.00000000	     -0.00000000	      8.35804974	     17.03527580	   -105.97711447	     38.64042327
      4.04154354	     -0.00000000	      0.00000000	     -0.00000000	      0.00000000	     44.46886904	    -35.63554073	      0.00000000	      0.00000000	      0.65202646	      0.29856256	     -0.00000000	     -0.00000000	      8.42835156	     14.28072702	   -105.79444121	     42.70962742
      4.04603402	     -0.00000000	      0.00000000	     -0.00000000	      0.00000000	     44.31047083	    -34.91249785	      0.00000000	      0.00000000	      0.65342903	      0.32601895	     -0.00000000	     -0.00000000	      8.48636293	     11.56225807	   -105.59366752	     46.70047956
      4.05052450	     -0.00000000	      0.00000000	     -0.00000000	      0.00000000	     44.15532452	    -34.18735513	      0.00000000	      0.00000000	      0.65495346	      0.35283231	     -0.00000000	     -0.00000000	      8.53225169	      8.88086662	   -105.37515241	     50.61297700
      4.05501498	     -0.00000000	      0.00000000	     -0.00000000	      0.00000000	     44.00343731	    -33.46109599	      0.00000000	      0.00000000	      0.65659677	      0.37896318	     -0.00000000	     -0.00000000	      8.56617998	      6.23560695	   -105.13923458	     54.45097808
      4.05950546	     -0.00000000	      0.00000000	     -0.00000000	      0.00000000	     43.85481204	    -32.73468741	      0.00000000	      0.00000000	      0.65835582	      0.40436693	     -0.00000000	     -0.00000000	      8.58832313	      3.63299704	   -104.88627035	     58.20338074
      4.06399594	     -0.00000000	      0.00000000	     -0.00000000	      0.00000000	     43.70944727	    -32.00907457	      0.00000000	      0.00000000	      0.66022722	      0.42900136	     -0.00000000	     -0.00000000	      8.59888701	      1.07856795	   -104.61666854	     61.86101324
      4.06799362	     -0.00000000	      0.00000000	     -0.00000000	      0.00000000	     43.58277420	    -31.36451270	      0.00000000	      0.00000000	      0.66198493	      0.45025502	     -0.00000000	     -0.00000000	      8.59872464	     -1.15409576	   -104.36299768	     65.03721692
      4.07199129	     -0.00000000	      0.00000000	     -0.00000000	      0.00000000	     43.45867409	    -30.72195376	      0.00000000	      0.00000000	      0.66382628	      0.47084359	     -0.00000000	     -0.00000000	      8.58971818	     -3.34580609	   -104.09678454	     68.13551970
      4.07598897	     -0.00000000	      0.00000000	     -0.00000000	      0.00000000	     43.33713768	    -30.08202274	      0.00000000	      0.00000000	      0.66574856	      0.49074120	     -0.00000000	     -0.00000000	      8.57203653	     -5.49376609	   -103.81834842	     71.15157765
      4.07998665	     -0.00000000	      0.00000000	     -0.00000000	      0.00000000	     43.21815324	    -29.44532921	      0.00000000	      0.00000000	      0.66774897	      0.50992286	     -0.00000000	     -0.00000000	      8.54586088	     -7.59496153	   -103.52802824	     74.08058148
      4.08398433	     -0.00000000	      0.00000000	     -0.00000000	      0.00000000	     43.10170663	    -28.81246693	      0.00000000	      0.00000000	      0.66982459	      0.52836555	     -0.00000000	     -0.00000000	      8.51138230	     -9.64748245	   -103.22617785	     76.91989874
      4.08798201	     -0.00000000	      0.00000000	     -0.00000000	      0.00000000	     42.98778138	    -28.18401378	      0.00000000	      0.00000000	      0.67197242	      0.54604748	     -0.00000000	     -0.00000000	      8.46879856	    -11.64965459	   -102.91315988	     79.66733674
      4.09197969	     -0.00000000	      0.00000000	     -0.00000000	      0.00000000	     42.87635873	    -27.56053107	      0.00000000	      0.00000000	      0.67418939	      0.56294738	     -0.00000000	     -0.00000000	      8.41831545	    -13.59913661	   -102.58934836	     82.31933535
      4.09597737	     -0.00000000	      0.00000000	     -0.00000000	      0.00000000	     42.76741772	    -26.94256246	      0.00000000	      0.00000000	      0.67647232	      0.57904501	     -0.00000000	     -0.00000000	      8.36014859	    -15.49349235	   -102.25513262	     84.87210963
      4.09997505	     -0.00000000	      0.00000000	     -0.00000000	      0.00000000	     42.66093525	    -26.33063347	      0.00000000	      0.00000000	      0.67881796	      0.59432170	     -0.00000000	     -0.00000000	      8.29452230	    -17.33082060	   -101.91091511	     87.32290815
